<svg width="37" height="38" viewBox="0 0 37 38" fill="none" xmlns="http://www.w3.org/2000/svg">
<g clip-path="url(#clip0_84_4212)">
<path d="M18.1995 36.7577C28.1731 36.7577 36.2583 28.6724 36.2583 18.6988C36.2583 8.7252 28.1731 0.639984 18.1995 0.639984C8.22584 0.639984 0.140625 8.7252 0.140625 18.6988C0.140625 28.6724 8.22584 36.7577 18.1995 36.7577Z" fill="#120E00"/>
<path d="M12.9546 16.0849C14.4072 16.0849 15.5848 14.9073 15.5848 13.4546C15.5848 12.0019 14.4072 10.8243 12.9546 10.8243C11.5019 10.8243 10.3242 12.0019 10.3242 13.4546C10.3242 14.9073 11.5019 16.0849 12.9546 16.0849Z" fill="#C6FF00"/>
<path d="M25.2279 28.3596C26.6806 28.3596 27.8582 27.182 27.8582 25.7294C27.8582 24.2767 26.6806 23.0991 25.2279 23.0991C23.7753 23.0991 22.5977 24.2767 22.5977 25.7294C22.5977 27.182 23.7753 28.3596 25.2279 28.3596Z" fill="#C6FF00"/>
<path d="M18.6535 13.4546H19.0344C21.7061 13.4546 23.042 13.4546 23.5491 13.9344C23.9875 14.3493 24.1817 14.9603 24.0634 15.552C23.9265 16.2366 22.8358 17.008 20.6545 18.5508L17.0909 21.0715C14.9096 22.6143 13.819 23.3858 13.6821 24.0703C13.5638 24.6621 13.758 25.2731 14.1964 25.6879C14.7035 26.1677 16.0393 26.1677 18.7111 26.1677H19.5303M15.5848 13.4546C15.5848 14.9073 14.4072 16.0849 12.9546 16.0849C11.5019 16.0849 10.3242 14.9073 10.3242 13.4546C10.3242 12.0019 11.5019 10.8243 12.9546 10.8243C14.4072 10.8243 15.5848 12.0019 15.5848 13.4546ZM27.8595 25.7293C27.8595 27.182 26.6819 28.3596 25.2293 28.3596C23.7766 28.3596 22.599 27.182 22.599 25.7293C22.599 24.2767 23.7766 23.0991 25.2293 23.0991C26.6819 23.0991 27.8595 24.2767 27.8595 25.7293Z" stroke="#C6FF00" stroke-width="0.560031" stroke-linecap="round" stroke-linejoin="round"/>
</g>
<defs>
<clipPath id="clip0_84_4212">
<rect width="37" height="37" fill="white" transform="translate(0 0.5)"/>
</clipPath>
</defs>
</svg>
